<svg width="170" height="201" viewBox="0 0 170 201" fill="none" xmlns="http://www.w3.org/2000/svg">
<rect width="170" height="201" rx="10" fill="#1E1E1E"/>
<path fill-rule="evenodd" clip-rule="evenodd" d="M85 146C119.794 146 148 117.794 148 83C148 48.2061 119.794 20 85 20C50.2061 20 22 48.2061 22 83C22 117.794 50.2061 146 85 146ZM85 133C112.614 133 135 110.614 135 83C135 55.3858 112.614 33 85 33C57.3858 33 35 55.3858 35 83C35 110.614 57.3858 133 85 133Z" fill="#121212"/>
<path d="M135 83C135 110.614 112.614 133 85 133C57.3858 133 35 110.614 35 83C35 55.3858 57.3858 33 85 33C112.614 33 135 55.3858 135 83Z" fill="#1E1E1E"/>
<path d="M85 20C98.2757 20 111.212 24.1938 121.963 31.9827L114.373 42.4581C105.83 36.2684 95.5498 32.9358 85 32.9358V20Z" fill="#57ACDC"/>
<path d="M73.284 90C72.948 90 72.672 89.898 72.456 89.694C72.24 89.478 72.132 89.214 72.132 88.902V79.83L72.384 80.226L71.07 81.198C70.902 81.33 70.692 81.396 70.44 81.396C70.152 81.396 69.9 81.288 69.684 81.072C69.468 80.856 69.36 80.598 69.36 80.298C69.36 79.914 69.546 79.602 69.918 79.362L72.51 77.634C72.63 77.55 72.762 77.49 72.906 77.454C73.062 77.418 73.206 77.4 73.338 77.4C73.686 77.4 73.962 77.508 74.166 77.724C74.37 77.928 74.472 78.186 74.472 78.498V88.902C74.472 89.214 74.358 89.478 74.13 89.694C73.914 89.898 73.632 90 73.284 90ZM81.5221 90.18C80.4901 90.18 79.6141 89.91 78.8941 89.37C78.1861 88.818 77.6461 88.056 77.2741 87.084C76.9021 86.1 76.7161 84.972 76.7161 83.7C76.7161 82.416 76.9021 81.288 77.2741 80.316C77.6461 79.344 78.1861 78.588 78.8941 78.048C79.6141 77.496 80.4901 77.22 81.5221 77.22C82.5541 77.22 83.4241 77.496 84.1321 78.048C84.8521 78.588 85.3981 79.344 85.7701 80.316C86.1421 81.288 86.3281 82.416 86.3281 83.7C86.3281 84.972 86.1421 86.1 85.7701 87.084C85.3981 88.056 84.8521 88.818 84.1321 89.37C83.4241 89.91 82.5541 90.18 81.5221 90.18ZM81.5221 88.02C82.0261 88.02 82.4581 87.864 82.8181 87.552C83.1901 87.228 83.4781 86.748 83.6821 86.112C83.8861 85.464 83.9881 84.66 83.9881 83.7C83.9881 82.728 83.8861 81.924 83.6821 81.288C83.4781 80.652 83.1901 80.178 82.8181 79.866C82.4581 79.542 82.0261 79.38 81.5221 79.38C81.0301 79.38 80.5981 79.542 80.2261 79.866C79.8541 80.178 79.5661 80.652 79.3621 81.288C79.1581 81.924 79.0561 82.728 79.0561 83.7C79.0561 84.66 79.1581 85.464 79.3621 86.112C79.5661 86.748 79.8541 87.228 80.2261 87.552C80.5981 87.864 81.0301 88.02 81.5221 88.02ZM90.5447 84.24C89.9687 84.24 89.4587 84.084 89.0147 83.772C88.5707 83.46 88.2227 83.04 87.9707 82.512C87.7187 81.984 87.5927 81.396 87.5927 80.748C87.5927 80.088 87.7187 79.494 87.9707 78.966C88.2227 78.438 88.5707 78.018 89.0147 77.706C89.4587 77.394 89.9687 77.238 90.5447 77.238C91.1327 77.238 91.6427 77.394 92.0747 77.706C92.5187 78.018 92.8607 78.438 93.1007 78.966C93.3527 79.494 93.4787 80.088 93.4787 80.748C93.4787 81.396 93.3467 81.984 93.0827 82.512C92.8187 83.04 92.4647 83.46 92.0207 83.772C91.5887 84.084 91.0967 84.24 90.5447 84.24ZM90.5447 82.638C90.9047 82.638 91.1807 82.458 91.3727 82.098C91.5767 81.738 91.6787 81.288 91.6787 80.748C91.6787 80.208 91.5827 79.758 91.3907 79.398C91.1987 79.038 90.9167 78.858 90.5447 78.858C90.1847 78.858 89.9027 79.038 89.6987 79.398C89.4947 79.758 89.3927 80.208 89.3927 80.748C89.3927 81.288 89.4887 81.738 89.6807 82.098C89.8847 82.458 90.1727 82.638 90.5447 82.638ZM98.2667 90.18C97.7147 90.18 97.2167 90.024 96.7727 89.712C96.3287 89.4 95.9747 88.98 95.7107 88.452C95.4467 87.924 95.3147 87.336 95.3147 86.688C95.3147 86.028 95.4407 85.434 95.6927 84.906C95.9447 84.378 96.2927 83.958 96.7367 83.646C97.1807 83.334 97.6907 83.178 98.2667 83.178C98.8547 83.178 99.3647 83.334 99.7967 83.646C100.241 83.958 100.583 84.378 100.823 84.906C101.075 85.434 101.201 86.028 101.201 86.688C101.201 87.336 101.069 87.924 100.805 88.452C100.541 88.98 100.187 89.4 99.7427 89.712C99.3107 90.024 98.8187 90.18 98.2667 90.18ZM98.2667 88.578C98.6267 88.578 98.9027 88.398 99.0947 88.038C99.2987 87.678 99.4007 87.228 99.4007 86.688C99.4007 86.148 99.3047 85.698 99.1127 85.338C98.9207 84.978 98.6387 84.798 98.2667 84.798C97.9067 84.798 97.6247 84.978 97.4207 85.338C97.2167 85.698 97.1147 86.148 97.1147 86.688C97.1147 87.228 97.2107 87.678 97.4027 88.038C97.6067 88.398 97.8947 88.578 98.2667 88.578ZM90.7607 90.036C90.5687 90.036 90.3647 89.958 90.1487 89.802C89.9327 89.634 89.8247 89.418 89.8247 89.154C89.8247 88.998 89.8847 88.818 90.0047 88.614L97.1687 77.796C97.3847 77.508 97.6307 77.364 97.9067 77.364C98.1107 77.364 98.3147 77.442 98.5187 77.598C98.7347 77.754 98.8427 77.97 98.8427 78.246C98.8427 78.402 98.7827 78.582 98.6627 78.786L91.4987 89.604C91.2827 89.892 91.0367 90.036 90.7607 90.036Z" fill="#57ACDC"/>
<path d="M42.63 166.25V164.794H45.542V175H43.932V166.25H42.63ZM47.7345 169.764C47.7345 168.149 48.0052 166.889 48.5465 165.984C49.0972 165.069 50.0399 164.612 51.3745 164.612C52.7092 164.612 53.6472 165.069 54.1885 165.984C54.7392 166.889 55.0145 168.149 55.0145 169.764C55.0145 171.397 54.7392 172.676 54.1885 173.6C53.6472 174.515 52.7092 174.972 51.3745 174.972C50.0399 174.972 49.0972 174.515 48.5465 173.6C48.0052 172.676 47.7345 171.397 47.7345 169.764ZM53.4465 169.764C53.4465 169.008 53.3952 168.369 53.2925 167.846C53.1992 167.323 53.0032 166.899 52.7045 166.572C52.4059 166.236 51.9625 166.068 51.3745 166.068C50.7865 166.068 50.3432 166.236 50.0445 166.572C49.7459 166.899 49.5452 167.323 49.4425 167.846C49.3492 168.369 49.3025 169.008 49.3025 169.764C49.3025 170.548 49.3492 171.206 49.4425 171.738C49.5359 172.27 49.7319 172.699 50.0305 173.026C50.3385 173.353 50.7865 173.516 51.3745 173.516C51.9625 173.516 52.4059 173.353 52.7045 173.026C53.0125 172.699 53.2132 172.27 53.3065 171.738C53.3999 171.206 53.4465 170.548 53.4465 169.764ZM63.9553 168.07C63.7033 167.585 63.3533 167.221 62.9053 166.978C62.4573 166.726 61.9393 166.6 61.3513 166.6C60.7073 166.6 60.1333 166.745 59.6293 167.034C59.1253 167.323 58.7286 167.734 58.4393 168.266C58.1593 168.798 58.0193 169.414 58.0193 170.114C58.0193 170.814 58.1593 171.435 58.4393 171.976C58.7286 172.508 59.1253 172.919 59.6293 173.208C60.1333 173.497 60.7073 173.642 61.3513 173.642C62.2193 173.642 62.9239 173.399 63.4653 172.914C64.0066 172.429 64.3379 171.771 64.4593 170.94H60.8053V169.666H66.1673V170.912C66.0646 171.668 65.7939 172.363 65.3553 172.998C64.9259 173.633 64.3613 174.141 63.6613 174.524C62.9706 174.897 62.2006 175.084 61.3513 175.084C60.4366 175.084 59.6013 174.874 58.8453 174.454C58.0893 174.025 57.4873 173.432 57.0393 172.676C56.6006 171.92 56.3813 171.066 56.3813 170.114C56.3813 169.162 56.6006 168.308 57.0393 167.552C57.4873 166.796 58.0893 166.208 58.8453 165.788C59.6106 165.359 60.4459 165.144 61.3513 165.144C62.3873 165.144 63.3066 165.401 64.1093 165.914C64.9213 166.418 65.5093 167.137 65.8733 168.07H63.9553ZM72.9494 170.002C73.4721 170.095 73.9154 170.371 74.2794 170.828C74.6434 171.285 74.8254 171.803 74.8254 172.382C74.8254 172.877 74.6947 173.325 74.4334 173.726C74.1814 174.118 73.8127 174.431 73.3274 174.664C72.8421 174.888 72.2774 175 71.6334 175H67.7414V165.27H71.4514C72.1141 165.27 72.6834 165.382 73.1594 165.606C73.6354 165.83 73.9947 166.133 74.2374 166.516C74.4801 166.889 74.6014 167.309 74.6014 167.776C74.6014 168.336 74.4521 168.803 74.1534 169.176C73.8547 169.549 73.4534 169.825 72.9494 170.002ZM69.3374 169.358H71.3114C71.8341 169.358 72.2401 169.241 72.5294 169.008C72.8281 168.765 72.9774 168.42 72.9774 167.972C72.9774 167.533 72.8281 167.193 72.5294 166.95C72.2401 166.698 71.8341 166.572 71.3114 166.572H69.3374V169.358ZM71.4934 173.698C72.0347 173.698 72.4594 173.567 72.7674 173.306C73.0754 173.045 73.2294 172.681 73.2294 172.214C73.2294 171.738 73.0661 171.36 72.7394 171.08C72.4127 170.8 71.9787 170.66 71.4374 170.66H69.3374V173.698H71.4934ZM85.3765 161.784L81.5685 177.45H80.0005L83.7945 161.784H85.3765ZM90.6046 166.25V164.794H93.5166V175H91.9066V166.25H90.6046ZM95.7091 169.764C95.7091 168.149 95.9798 166.889 96.5211 165.984C97.0718 165.069 98.0145 164.612 99.3491 164.612C100.684 164.612 101.622 165.069 102.163 165.984C102.714 166.889 102.989 168.149 102.989 169.764C102.989 171.397 102.714 172.676 102.163 173.6C101.622 174.515 100.684 174.972 99.3491 174.972C98.0145 174.972 97.0718 174.515 96.5211 173.6C95.9798 172.676 95.7091 171.397 95.7091 169.764ZM101.421 169.764C101.421 169.008 101.37 168.369 101.267 167.846C101.174 167.323 100.978 166.899 100.679 166.572C100.38 166.236 99.9371 166.068 99.3491 166.068C98.7611 166.068 98.3178 166.236 98.0191 166.572C97.7205 166.899 97.5198 167.323 97.4171 167.846C97.3238 168.369 97.2771 169.008 97.2771 169.764C97.2771 170.548 97.3238 171.206 97.4171 171.738C97.5105 172.27 97.7065 172.699 98.0051 173.026C98.3131 173.353 98.7611 173.516 99.3491 173.516C99.9371 173.516 100.38 173.353 100.679 173.026C100.987 172.699 101.188 172.27 101.281 171.738C101.374 171.206 101.421 170.548 101.421 169.764ZM104.678 169.764C104.678 168.149 104.949 166.889 105.49 165.984C106.041 165.069 106.983 164.612 108.318 164.612C109.653 164.612 110.591 165.069 111.132 165.984C111.683 166.889 111.958 168.149 111.958 169.764C111.958 171.397 111.683 172.676 111.132 173.6C110.591 174.515 109.653 174.972 108.318 174.972C106.983 174.972 106.041 174.515 105.49 173.6C104.949 172.676 104.678 171.397 104.678 169.764ZM110.39 169.764C110.39 169.008 110.339 168.369 110.236 167.846C110.143 167.323 109.947 166.899 109.648 166.572C109.349 166.236 108.906 166.068 108.318 166.068C107.73 166.068 107.287 166.236 106.988 166.572C106.689 166.899 106.489 167.323 106.386 167.846C106.293 168.369 106.246 169.008 106.246 169.764C106.246 170.548 106.293 171.206 106.386 171.738C106.479 172.27 106.675 172.699 106.974 173.026C107.282 173.353 107.73 173.516 108.318 173.516C108.906 173.516 109.349 173.353 109.648 173.026C109.956 172.699 110.157 172.27 110.25 171.738C110.343 171.206 110.39 170.548 110.39 169.764ZM120.899 168.07C120.647 167.585 120.297 167.221 119.849 166.978C119.401 166.726 118.883 166.6 118.295 166.6C117.651 166.6 117.077 166.745 116.573 167.034C116.069 167.323 115.672 167.734 115.383 168.266C115.103 168.798 114.963 169.414 114.963 170.114C114.963 170.814 115.103 171.435 115.383 171.976C115.672 172.508 116.069 172.919 116.573 173.208C117.077 173.497 117.651 173.642 118.295 173.642C119.163 173.642 119.867 173.399 120.409 172.914C120.95 172.429 121.281 171.771 121.403 170.94H117.749V169.666H123.111V170.912C123.008 171.668 122.737 172.363 122.299 172.998C121.869 173.633 121.305 174.141 120.605 174.524C119.914 174.897 119.144 175.084 118.295 175.084C117.38 175.084 116.545 174.874 115.789 174.454C115.033 174.025 114.431 173.432 113.983 172.676C113.544 171.92 113.325 171.066 113.325 170.114C113.325 169.162 113.544 168.308 113.983 167.552C114.431 166.796 115.033 166.208 115.789 165.788C116.554 165.359 117.389 165.144 118.295 165.144C119.331 165.144 120.25 165.401 121.053 165.914C121.865 166.418 122.453 167.137 122.817 168.07H120.899ZM129.893 170.002C130.415 170.095 130.859 170.371 131.223 170.828C131.587 171.285 131.769 171.803 131.769 172.382C131.769 172.877 131.638 173.325 131.377 173.726C131.125 174.118 130.756 174.431 130.271 174.664C129.785 174.888 129.221 175 128.577 175H124.685V165.27H128.395C129.057 165.27 129.627 165.382 130.103 165.606C130.579 165.83 130.938 166.133 131.181 166.516C131.423 166.889 131.545 167.309 131.545 167.776C131.545 168.336 131.395 168.803 131.097 169.176C130.798 169.549 130.397 169.825 129.893 170.002ZM126.281 169.358H128.255C128.777 169.358 129.183 169.241 129.473 169.008C129.771 168.765 129.921 168.42 129.921 167.972C129.921 167.533 129.771 167.193 129.473 166.95C129.183 166.698 128.777 166.572 128.255 166.572H126.281V169.358ZM128.437 173.698C128.978 173.698 129.403 173.567 129.711 173.306C130.019 173.045 130.173 172.681 130.173 172.214C130.173 171.738 130.009 171.36 129.683 171.08C129.356 170.8 128.922 170.66 128.381 170.66H126.281V173.698H128.437Z" fill="#939393"/>
</svg>
